<svg xmlns="http://www.w3.org/2000/svg" xmlns:xlink="http://www.w3.org/1999/xlink" id="Layer_1" x="0px" y="0px" viewBox="0 0 200 100" style="enable-background:new 0 0 200 100;" xml:space="preserve"><style type="text/css">	.st0{fill:#0F103F;}	.st1{fill:#00B6C9;}	.st2{fill:#0F103F;}</style><g>	<path class="st1" d="M131.3,54.7c0-5.6,3.8-10.1,9.9-10.1c6.1,0,9.9,4.5,9.9,10.1c0,5.5-3.8,10.1-9.9,10.1   C135.1,64.8,131.3,60.2,131.3,54.7z M145.3,54.7c0-2.3-1.7-4.2-4.2-4.2c-2.5,0-4.1,1.9-4.1,4.2c0,2.3,1.7,4.2,4.1,4.2   C143.7,58.9,145.3,57,145.3,54.7z"></path>	<path class="st2" d="M27.8,63.8V45.3c0-0.8,1.6-0.8,3.3-0.8c1.6,0,3.2,0,3.2,0.8v18.6c0,0.8-1.6,0.8-3.2,0.8   C29.4,64.6,27.8,64.6,27.8,63.8z"></path>	<circle class="st2" cx="31" cy="39.4" r="3.3"></circle>	<path class="st2" d="M16.5,64.6c1.6,0,3.3,0,3.3-0.8V50.2h3.7c0.8,0,0.8-1.4,0.8-2.8c0-1.4,0-2.8-0.8-2.8h-3.7v-1.9c0-1,0.6-2,2-2   c1,0,2,0.2,3,0.7c0.1,0,0.2,0.1,0.3,0.1c0.6,0,1.2-1.2,1.6-2.3c0.3-0.8,0.5-1.6,0.5-2.2c0-0.4-0.1-0.7-0.3-0.8   c-1.7-1-3.3-1.3-5.5-1.3c-4.7,0-8,2.9-8,7.8v1.9h-2.7c-0.8,0-0.8,1.4-0.8,2.8c0,1.4,0,2.8,0.8,2.8h2.7v13.6   C13.2,64.6,14.8,64.6,16.5,64.6z"></path>	<path class="st2" d="M105.3,64.8c2.4,0,4.6-0.4,6.5-1.5c0.2-0.1,0.3-0.4,0.3-0.7c0-0.7-0.3-1.8-0.6-2.6c-0.5-1.2-1-2.4-1.7-2.4   c-0.1,0-0.2,0-0.3,0.1c-1.1,0.6-2.2,1-3.5,1c-2.2,0-3.7-1.8-3.7-4.1c0-2.4,1.5-4.1,3.7-4.1c1.3,0,2.4,0.4,3.5,1   c0.1,0.1,0.2,0.1,0.3,0.1c0.6,0,1.4-1.3,1.8-2.6c0.3-0.7,0.6-1.7,0.6-2.4c0-0.4-0.1-0.7-0.4-0.8c-1.9-1.1-4-1.5-6.5-1.5   c-5.3,0-9.6,4-9.6,10.3C95.7,60.9,100,64.8,105.3,64.8z"></path>	<path class="st2" d="M121.6,44.3c-5.8,0-9.7,4.4-9.7,10.2c0,5.9,3.7,10.4,9.6,10.4c2.7,0,5.3-0.6,7.7-2c0.2-0.1,0.3-0.4,0.3-0.7   c0-0.6-0.3-1.5-0.6-2.3c-0.4-1-0.8-2-1.4-2c-0.1,0-0.2,0-0.3,0.1c-1.5,0.9-3.1,1.4-4.9,1.4c-2,0-3.6-1.2-3.9-3h11.4   c0.6,0,0.6-0.9,0.6-1.8C130.4,48.8,127.7,44.3,121.6,44.3z M118.3,52.5c0-1.7,1.3-3.1,3-3.1c1.6,0,3,1.4,3,3.1H118.3z"></path>	<path class="st2" d="M75.1,59.8L75.1,59.8c-0.4-0.1-0.5-0.2-0.7-0.6c-0.1-0.2-0.2-0.5-0.2-0.8l0-13.2l0,0V45   c-0.1-0.6-1.3-0.6-2.5-0.6c-1.2,0-2.5,0-2.5,0.6v1.1c-1.5-0.9-3.1-1.3-5-1.3c-1.8,0-3.5,0.5-5,1.3c-1.5,0.9-2.7,2.1-3.6,3.6   c-0.9,1.5-1.3,3.2-1.3,5c0,1.8,0.5,3.5,1.3,5c0.9,1.5,2.1,2.7,3.6,3.6c1.5,0.9,3.2,1.3,5,1.3c2.1,0,4.7-0.9,6.4-2.1   c0.8,1.1,1.6,1.7,2.8,1.9c0,0,0.6,0,0.8,0c0.3,0,0.7,0,0.7,0c0.6-0.1,0.6-1.1,0.6-2.3C75.6,61.1,75.6,59.9,75.1,59.8z M67.5,58.1   c-0.9,0.9-1.9,1.3-3.1,1.3s-2.2-0.4-3.1-1.3c-0.8-0.9-1.3-1.9-1.3-3.1s0.4-2.2,1.3-3.1c0.8-0.8,1.9-1.3,3.1-1.3   c1.2,0,2.2,0.4,3.1,1.3c0.9,0.8,1.3,1.9,1.3,3.1C68.7,56.2,68.3,57.3,67.5,58.1z"></path>	<path class="st1" d="M180.8,44.3c-5.8,0-9.7,4.4-9.7,10.2c0,5.9,3.7,10.4,9.6,10.4c2.7,0,5.3-0.6,7.7-2c0.2-0.1,0.3-0.4,0.3-0.7   c0-0.6-0.3-1.5-0.6-2.3c-0.4-1-0.8-2-1.4-2c-0.1,0-0.2,0-0.3,0.1c-1.5,0.9-3.1,1.4-4.9,1.4c-2,0-3.6-1.2-3.9-3H189   c0.6,0,0.6-0.9,0.6-1.8C189.6,48.8,186.9,44.3,180.8,44.3z M177.5,52.5c0-1.7,1.3-3.1,3-3.1s3,1.4,3,3.1H177.5z"></path>	<path class="st2" d="M46.7,44.3c-2.4,0-4.1,1.4-5.3,3.1v-2.1c0-0.8-1.5-0.8-3.1-0.8c-1.5,0-3.1,0-3.1,0.8v18.6   c0,0.8,1.6,0.8,3.2,0.8c1.5,0,3,0,3.2-0.6V53.5c0-1.5,1.2-2.6,2.6-2.6s2.6,1.2,2.6,2.6V56v7.8c0,0.8,1.7,0.8,3.3,0.8   c1.7,0,3.2,0,3.2-0.8V52.5C53.5,47.3,50.8,44.3,46.7,44.3z"></path>	<path class="st2" d="M88,44.3c-2.4,0-4.1,1.4-5.3,3.1v-2.1c0-0.8-1.5-0.8-3.1-0.8c-1.5,0-3.1,0-3.1,0.8v18.6c0,0.8,1.6,0.8,3.2,0.8   c1.5,0,3,0,3.2-0.6V53.5c0-1.5,1.2-2.6,2.6-2.6c1.5,0,2.6,1.2,2.6,2.6V56v7.8c0,0.8,1.7,0.8,3.3,0.8c1.7,0,3.2,0,3.2-0.8V52.5   C94.8,47.3,92.1,44.3,88,44.3z"></path>	<path class="st1" d="M163.5,44.3c-2.4,0-4.1,1.4-5.3,3.1v-2.1c0-0.8-1.5-0.8-3.1-0.8c-1.5,0-3.1,0-3.1,0.8v18.6   c0,0.8,1.6,0.8,3.2,0.8c1.5,0,3,0,3.2-0.6V53.5c0-1.5,1.2-2.6,2.6-2.6c1.5,0,2.6,1.2,2.6,2.6V56v7.8c0,0.8,1.7,0.8,3.3,0.8   c1.7,0,3.2,0,3.2-0.8V52.5C170.2,47.3,167.5,44.3,163.5,44.3z"></path></g></svg>