<svg xmlns="http://www.w3.org/2000/svg" xmlns:xlink="http://www.w3.org/1999/xlink" id="Layer_1" x="0px" y="0px" viewBox="0 0 200 100" style="enable-background:new 0 0 200 100;" xml:space="preserve"><style type="text/css">	.st0{fill:#FCCC00;}	.st1{fill:#E50094;}	.st2{fill:#E10C13;}	.st3{fill:#06B2E3;}	.st4{fill:#010A80;}	.st5{fill:#212121;}</style><g>	<path class="st0" d="M0.5,64.1c21.1,0,34.2,1.6,55.3,1.6c10.4,0,20.5,0.4,30.7-1.2c4.1-0.6,7.8-1,11.7-0.2c4.3,1,7.8,3.5,11.9,4.9   c3.9,1.4,8,0.4,11.7-0.8c4.1-1.2,7.8-2.7,11.9-4.1c3.7-1.2,7-1,10.6,0.4c3.3,1.4,6.2,3.3,9.6,4.7c7.2,3.1,15.2,3.7,22.9,2.4   c8.2-1.4,15.8-5.1,23.3-8.8c0.6-0.4-0.2-4.3,0.2-4.5c-8.2,4.3-17,9.6-26.6,10.6c-8.8,1-17-2.4-24.8-6.6c-3.5-2-7.2-3.7-11.3-3.5   c-2.2,0.2-4.3,1-6.2,1.6c-2.4,0.8-4.7,1.7-7,2.5c-4.3,1.4-9,2.7-13.5,1.6c-4.1-1.2-7.6-3.9-11.9-4.9c-3.5-1-6.8-0.8-10.4-0.2   c-4.2,0.6-8.5,1-12.7,1.2c-5.9,0.2-8.6,0.4-18,0.2c-18.4,0.4-38.7-1.7-57.4-1.7C0.1,59.3,0.3,64.1,0.5,64.1"></path>	<path class="st1" d="M4.9,70.4c11.9,0.8,20.3,1.2,30.8,1.6c5.3,0.2,3.1,0,8.4,0c4.7,0,9.4,0,13.7-1.4c4.1-1.2,8.2-4.3,11.9-6.3   c3.7-1.7,7.2-3.7,11.5-4.1c7.6-0.6,13.9,5.9,19.5,10.1c6.2,4.9,13.3,13.5,21.3,14.5c9.4,1,16.4-10.6,23.6-15.3   c7.8-5.1,18-4.5,26.9-3.7c4.3,0.4,8.4,0.6,12.7,1.2c3.1,0.4,7,1,10-0.8c0.4-0.2,0.2-2.5,0.2-2.7v-0.4c-2.9,2-7,1.2-10.4,0.8   c-4.5-0.6-9-2-13.5-2.4c-5.1-0.4-10.1-0.6-15,0.2c-4.7,0.8-8.6,2.4-12.5,4.9c-4.1,2.7-7.8,9.8-12.1,11.9c-2.4,1.2-4.7,3.3-7.2,3.3   c-1.7,0-4.7-1.4-5.3-2c-8.4-2-15.3-11.6-21.9-16.6C92.2,59.2,86,54.5,79,56c-3.9,0.8-7.4,4.3-10.9,6.1c-3.7,1.7-7.6,3.5-11.5,4.5   c-4.5,1-9.2,1-13.7,0.8c-5.1-0.2-7.2-0.2-12.3-0.4c-10.1-0.4-13.7-1-25-1.6C4.7,65.5,4.7,70.4,4.9,70.4"></path>	<path class="st2" d="M131.6,62.6c-0.4-0.2-0.8-0.4-1.4-0.8c-0.4,0-0.8,0-1,0.2c-2.3,0.4-4.5,1-6.6,1.7c1.6,0.2,2.9,0.6,4.5,1.2   c0.8,0.4,1.6,0.6,2.4,1c2.7-0.4,5.5-0.4,8.2-0.4C135.6,64.6,133.5,63.6,131.6,62.6z M70.2,63.4c-1.4-1.2-2.9-2.2-4.5-3.3   c-2.4,0.2-4.7,0.4-7.2,0.6h-0.4c2.9,0.8,5.7,2.4,8.2,4.3c1-0.2,2-0.2,2.9-0.4c0.8-0.2,1.4-0.2,2.2-0.2C71,64.1,70.6,63.7,70.2,63.4   z M42.9,61c-0.8,0.6-1.6,1-2.4,1.4c-2.7,1.2-5.5,2.5-8.2,3.5h7.6c0.8-0.4,1.6-1,2.4-1.4c2.7-1.4,5.3-2.7,8.2-3.5H42.9z M168.1,65.9   c-1.4,0.6-2.9,1.2-4.3,1.6c1.4,0,2.9-0.4,4.1-1.2C167.9,66.3,168.1,66.1,168.1,65.9z"></path>	<path class="st3" d="M51.2,80.4c8.6,0.4,20.1,1.2,28.7-0.2c3.9-0.6,7.4-1.7,10.6-4.3c2.7-2.2,5.3-4.7,8.8-5.1   c4.1-0.4,7.4,2.4,10,5.3s3.9,6.8,8,8.4c5.7,2.2,8.4-3.9,11.7-7.2c2-2,4.3-3.1,7-2.5c2.9,0.6,5.7,2.7,7.8,4.5   c4.7,3.7,10.4,8.4,16.2,4.1c2-1.4,3.5-3.5,5.3-5.1c2.4-2,4.7-2.5,7.6-2.4c3.9,0.2,7.8,1.6,11.7,1.7c3.1,0.2,7-0.6,9.8-2.4   c0.4-0.2,0.2-2.5,0.2-2.7v-1.6c-3.1,2.2-7.6,2.7-11.3,2.4c-4.3-0.4-8.6-2-12.9-1.6c-6,0.6-8.2,8.4-14.3,9.2   c-6.4,1-11.3-5.7-16.2-8.8c-2.4-1.6-5.3-2.4-8-1.2c-2.4,1-3.9,3.1-5.3,5.1c-1.7,1.6-3.1,3.5-5.7,4.1c-3.3,0.8-6.6-1.4-8.4-3.7   c-2.4-3.1-4.3-6.6-7.8-8.8c-3.3-2-7-1.4-10.1,0.6c-2.9,2-5.3,4.7-8.6,6.1c-3.9,1.6-8.6,2-12.9,2.4c-8,0.6-16-0.2-24-0.6   c-17.4-0.8-26,0.2-43.2,0.2c-0.4,0-0.2,4.7,0,4.7C5.8,81,42,80.2,51.2,80.4"></path>	<path class="st4" d="M84.9,70.8c-1.4-1.4-2.5-2.5-3.9-3.7c-0.8,0.4-1.7,0.8-2.5,1.2c-0.2,0.2-0.4,0.4-0.8,0.6   c0.8,0.6,1.4,1.2,2.2,1.6c0.4,0.4,0.8,0.6,1.2,1c0.8-0.2,1.4-0.4,2.2-0.6C83.7,70.6,84.3,70.6,84.9,70.8z M103.1,85.1   c1,0,2-0.2,2.9-0.6c2.5-1.2,4.3-4.1,6.2-6.4c-0.4,0.2-0.8,0.6-1.2,0.6c-2.4,1.2-4.7,3.3-7.2,3.3c-4.2,0-7.6-2.7-8.8-3.3   c1.6,2.4,3.1,4.7,6,5.9C101.9,84.9,102.4,84.9,103.1,85.1z M119.4,70.4c-1.6,1.7-2.9,3.7-4.5,5.3c1.4-0.8,2.7-1.4,4.3-1.2   c1.2-1.2,2.4-2.2,3.5-3.1C121.6,70.8,120.4,70.4,119.4,70.4z"></path>	<path class="st5" d="M84.8,24.6h7v3.6h-7v15c0,2,1.4,2.6,3.8,2.6c1.1,0,2.2-0.1,3.2-0.3v3.9c-1.6,0.3-3.3,0.3-5.2,0.3   c-4.6,0-6.4-2.2-6.4-5.8V28.2h-5v-3.6h5v-7.4h4.6C84.8,17.1,84.8,24.6,84.8,24.6z M196.1,32.7h-4.9c-0.5-3.2-3.1-5.1-7.4-5.1   c-5.9,0-8.6,3.9-8.6,9.1c0,5.2,2.6,9.1,8.6,9.1c4.2,0,6.4-1.8,7.5-5.9h4.9c-2,7.3-6.3,9.7-12.7,9.7c-9.6,0-13.2-6.5-13.2-12.9   c0-7.2,4.4-13.1,13.2-13.1C190,23.7,195.1,26.7,196.1,32.7z M141.7,32.2c0.6-6.1,4.8-8.4,12.1-8.4c5,0,11.2,1.2,11.2,6.9v13.1   c0,1.4,0.7,2.1,2.1,2.1c0.5,0,1.2-0.1,1.6-0.2v3.3c-1.1,0.2-2.5,0.3-3.6,0.3c-2.3,0-3.8-0.7-4.2-3.4c-1.9,2.5-6.4,3.9-10.4,3.9   c-8.1,0-9.9-4.2-9.9-7.3c0-4.5,2.6-6.7,10.4-7.5l5.3-0.5c2.6-0.3,4.2-0.8,4.2-2.9c0-3.3-3.3-4-7-4c-4,0-7.4,1.1-7.5,4.8   C146.1,32.2,141.7,32.2,141.7,32.2z M54.3,41.3c0,2.2,1.7,4.9,7.6,4.9c6,0,7.4-2.1,7.4-3.8s-0.9-2.7-4.6-3.3l-7.6-1   c-3.5-0.4-6.5-2.7-6.5-6.4c0-4.9,4.3-7.8,11.1-7.8c8,0,11.4,3.4,11.9,8.2h-4.7c-0.1-2.4-2.4-4.5-7.3-4.5c-2.9,0-6.4,0.8-6.4,3.7   c0,1.6,0.8,2.5,4,3l6.6,0.9c6.1,0.8,8.5,3,8.5,6.4c0,5.7-4.8,8.3-12.2,8.3c-5.6,0-11.9-1.4-12.4-8.5C49.6,41.3,54.3,41.3,54.3,41.3   z M99.5,48.9h-4.7V24.6h4.7v3.7h0.1c2.2-3.4,6-4.5,9.5-4.5c3.2,0,6.3,1.3,8.3,4.5c2.2-2.8,5.2-4.5,9.8-4.5c2.4,0,9.2,1.2,9.2,8.6   v16.6h-4.6V33.5h0c0-4.5-2.8-5.8-5.9-5.8c-4.2,0-8,2-8,6.5v14.7h-4.7V33.5c0-4.5-2.8-5.8-5.9-5.8c-4.2,0-8,2.4-8,7.2L99.5,48.9   L99.5,48.9z M32.5,24.6h4.6v4.5h0.1c2.2-3.8,5.3-5.3,8.3-5.3c1.2,0,1.7,0,2.6,0.3v5c-1.2-0.3-2-0.4-3.3-0.4c-4.6,0-7.8,2.7-7.8,8   v12.3h-4.6C32.5,48.9,32.5,24.6,32.5,24.6z M9.2,21c0-4.5,2.8-6,7.5-6c1.4,0,2.7,0.2,4,0.4v3.6c-0.9,0-1.7-0.1-2.6-0.1   c-3,0-4.3,0.4-4.3,2.4v3.4h6.9v3.6h-6.9v20.7H9.2V28.2h-5v-3.6h5V21z M27.3,48.9h-4.6V24.6h4.6V48.9z M160.6,36.2   c-0.7,0.8-2,1.1-4.6,1.4l-5.2,0.7c-3.6,0.4-5.5,1.4-5.5,4c0,2.3,2.3,3.8,5.7,3.8c5.2,0,9.6-2.8,9.6-6.8   C160.6,39.3,160.6,36.2,160.6,36.2z M27.3,20.6h-4.6v-5.1h4.6V20.6z"></path></g></svg>